<?xml version="1.0" encoding="utf-8"?><svg xmlns="http://www.w3.org/2000/svg" xmlns:xlink="http://www.w3.org/1999/xlink"><symbol viewBox="0 0 11.906 5.844" id="arow_down" xmlns="http://www.w3.org/2000/svg"><path d="M5.944 5.847l5.955-5.861H-.01z" fill-rule="evenodd"/></symbol><symbol viewBox="0 0 170 28" id="arow_left_down" xmlns="http://www.w3.org/2000/svg"><path d="M10 0h160v2H10V0zM8.61 0v23.17l-6.67-6.08-1.95 1.78 10 9.12 1.95-1.78 8.05-7.34-1.95-1.78-6.67 6.08V0H8.61z" fill-rule="evenodd"/></symbol><symbol viewBox="0 0 28.44 20.25" id="arow_right" xmlns="http://www.w3.org/2000/svg"><path d="M0 11.52h23.55l-6.19 6.75 1.81 1.97 9.27-10.12-1.81-1.97L19.17.01l-1.81 1.97 6.18 6.75H0v2.79z" fill-rule="evenodd"/></symbol><symbol viewBox="0 0 170 28" id="arow_right_down" xmlns="http://www.w3.org/2000/svg"><path d="M0 0h160v2H0V0zm161.39 0v23.17l6.67-6.08 1.95 1.78-10 9.12-1.95-1.78-8.05-7.34 1.95-1.78 6.67 6.08V0h2.76z" fill-rule="evenodd"/></symbol><symbol viewBox="0 0 1792 1792" id="bank" xmlns="http://www.w3.org/2000/svg"><path d="M896.016 819.006c-57.438 0-104 46.562-104 104s46.562 104 104 104 104-46.562 104-104c-.066-57.41-46.59-103.934-104-104zm0 192c-48.601 0-88-39.399-88-88s39.399-88 88-88 88 39.399 88 88c-.057 48.577-39.423 87.943-88 88z"/><path d="M1128.016 803.006a8 8 0 008-8v-32c0-.104-.056-.184-.056-.288a7.881 7.881 0 00-.52-2.552c0-.096 0-.208-.072-.304a8.002 8.002 0 00-1.6-2.352 9.023 9.023 0 00-.744-.592 8.043 8.043 0 00-1.16-.912l-232-128a7.951 7.951 0 00-7.728 0l-232 128a8.043 8.043 0 00-1.16.912 9.023 9.023 0 00-.744.592 8.002 8.002 0 00-1.6 2.352c0 .096 0 .208-.072.304a7.881 7.881 0 00-.52 2.552c0 .104-.056.184-.056.288v32a8 8 0 008 8h24.032v240h-24a8 8 0 00-8 8v48a8 8 0 008 8h464a8 8 0 008-8v-48a8 8 0 00-8-8h-24v-240h24zm-232-158.864l200.936 110.864H695.08l200.936-110.864zm224 414.864v32h-448v-32h448zm-416-16v-240h32v240h-32zm48 0v-240h288v240h-288zm304 0v-240h32v240h-32zm-384-256v-16h448v16h-448z"/><path d="M860.845 927.873h10.883v-54.575c3.882-.915 8.047-1.526 12.492-1.832 4.445-.306 8.864-.46 13.259-.46 4.699 0 9.324.46 13.872 1.38 4.546.92 8.584 2.606 12.109 5.058 3.526 2.452 6.361 5.774 8.507 9.963 2.146 4.191 3.219 9.556 3.219 16.094 0 6.438-1.099 11.803-3.296 16.095-2.198 4.292-5.111 7.767-8.737 10.423-3.628 2.658-7.767 4.548-12.415 5.671a65.911 65.911 0 01-14.179 1.839l-12.109.153v10.883h25.444v9.503H884.45v21.459h-12.722v-21.459h-10.883v-9.503h10.883V937.53h-10.883v-9.657zm36.941-46.138c-2.659 0-5.187.077-7.587.23-2.402.153-4.318.381-5.748.687v44.301H896.1c3.066 0 6.131-.304 9.197-.915 3.066-.611 5.825-1.782 8.277-3.513 2.453-1.732 4.446-4.1 5.978-7.104s2.246-6.95 2.146-11.841c.1-4.175-.486-7.662-1.763-10.464-1.279-2.8-3.015-5.039-5.211-6.72-2.198-1.681-4.752-2.876-7.664-3.59-2.913-.714-6.005-1.071-9.274-1.071z"/></symbol><symbol viewBox="0 0 480 480" id="blank" xmlns="http://www.w3.org/2000/svg"><path d="M479.118 113.822a23.993 23.993 0 00-11.197-14.556 24.001 24.001 0 00-18.235-2.402 24.005 24.005 0 00-14.56 11.197l-3.999 6.96a7.999 7.999 0 00-10.877 2.882l-20.317 34.631-6.96-3.999a8.011 8.011 0 00-6.093-.801 8.023 8.023 0 00-4.866 3.761c-2.168 3.824-.848 8.682 2.96 10.877l6.96 3.999-67.988 117.82-16.798 44.875-7.999 14.954a23.997 23.997 0 001.281 25.917l-17.997 22.074-5.038-12.635a15.992 15.992 0 00-13.584-9.963 15.993 15.993 0 00-14.974 7.721l-2.878 4.878-2.718-31.995a16.004 16.004 0 00-14.025-14.568 16.002 16.002 0 00-17.091 10.811l-19.676 59.029a7.997 7.997 0 005.038 10.08 6.938 6.938 0 002.48.637 7.996 7.996 0 007.6-5.437l19.594-59.029 2.8 32.471a15.999 15.999 0 0029.675 6.881l2.96-4.882 4.96 12.56a15.991 15.991 0 0012.502 9.908 16.007 16.007 0 0014.853-5.831l18.637-23.594c2.062.539 4.187.808 6.319.801a23.996 23.996 0 0020.875-11.842l7.999-13.357 30.475-37.033 68.707-119.261 6.96 3.999a7.995 7.995 0 013.757 4.882 7.98 7.98 0 01-.797 6.077l-31.995 55.432a7.99 7.99 0 002.558 11.275 7.995 7.995 0 0010.959-2.956l31.995-55.432a23.982 23.982 0 002.398-18.235 24.005 24.005 0 00-11.197-14.56l-6.96-3.999 19.997-34.635c2.183-3.8.898-8.651-2.878-10.877l3.999-6.96a23.975 23.975 0 002.399-18.55zm-30.155 2.238a7.998 7.998 0 014.882-3.757 8.394 8.394 0 016.077.801 8.007 8.007 0 013.761 4.878 8.394 8.394 0 01-.801 6.077l-3.999 6.96-13.919-7.999 3.999-6.96zM339.942 339.385l-3.999-2.32-11.838-6.882 11.357-30.393 25.195 14.556-20.715 25.039zm-23.996 23.114a7.995 7.995 0 01-2.398-10.479l3.999-6.956 13.916 7.999-3.999 6.878a7.999 7.999 0 01-5.194 3.816 8.006 8.006 0 01-6.324-1.258zm53.831-61.267l-27.675-15.997 63.989-110.864 27.675 15.997-63.989 110.864zm71.988-124.702l-27.675-15.997 15.997-27.675 27.675 15.997-15.997 27.675zM126.217 358.499l-28.312 28.237-16.958-16.958a8 8 0 00-11.279 0 8 8 0 000 11.358l16.958 16.958a15.99 15.99 0 0011.279 4.64 16.001 16.001 0 0011.357-4.64l28.233-28.315a7.999 7.999 0 00-11.278-11.28z"/><path d="M31.995 380.015c0 37.552 30.44 67.988 67.988 67.988s67.988-30.436 67.988-67.988a8 8 0 00-15.998 0c0 28.714-23.277 51.991-51.991 51.991s-51.991-23.277-51.991-51.991 23.277-51.991 51.991-51.991a51.535 51.535 0 0131.194 10.401 7.996 7.996 0 0011.197-1.601 7.996 7.996 0 00-1.597-11.197 67.988 67.988 0 00-108.781 54.388zM287.951 64.069a8 8 0 000-15.998H79.986a8 8 0 00-7.999 7.999v31.995a7.997 7.997 0 007.999 7.999h207.965a8 8 0 000-15.998H87.985V64.069h199.966zm-183.969 47.992a8 8 0 00-7.999 7.999 7.997 7.997 0 007.999 7.999h159.973a8 8 0 000-15.998H103.982zm207.965 55.99h-175.97a8 8 0 00-7.999 7.999 7.997 7.997 0 007.999 7.999h175.97a7.997 7.997 0 007.999-7.999 8 8 0 00-7.999-7.999zm-79.987 55.991a8 8 0 00-7.999-7.999H63.989a8 8 0 00-7.999 7.999 7.997 7.997 0 007.999 7.999h159.973a7.997 7.997 0 007.998-7.999zm79.987-7.999h-55.99a8 8 0 00-7.999 7.999 7.997 7.997 0 007.999 7.999h55.99a7.997 7.997 0 007.999-7.999 8 8 0 00-7.999-7.999zm-167.972 55.991a8 8 0 000-15.998H63.989a8 8 0 00-7.999 7.999 7.997 7.997 0 007.999 7.999h79.986zm31.995 0h55.99a8 8 0 000-15.998h-55.99a8 8 0 000 15.998z"/><path d="M359.939 368.017a8 8 0 00-7.999 7.999v79.986a7.997 7.997 0 01-7.999 7.999H23.996a7.997 7.997 0 01-7.999-7.999V24.076a8 8 0 017.999-7.999h319.945a8 8 0 017.999 7.999v150.217a8 8 0 0015.998 0V24.076c0-13.252-10.744-23.996-23.996-23.996H23.996C10.744.08 0 10.824 0 24.076v431.926c0 13.256 10.744 23.996 23.996 23.996h319.945c13.252 0 23.996-10.74 23.996-23.996v-79.986a8 8 0 00-7.998-7.999z"/></symbol><symbol id="cal" viewBox="0 0 512 512" xml:space="preserve" xmlns="http://www.w3.org/2000/svg"><style>.agst0{stroke:#000;stroke-width:7;stroke-miterlimit:10}</style><path class="agst0" d="M403.5 210c0-9.6-7.9-17.5-17.5-17.5s-17.5 7.9-17.5 17.5 7.9 17.5 17.5 17.5 17.5-7.9 17.5-17.5z"/><path class="agst0" d="M432 52.5h-38.5V20c0-4.1-3.4-7.5-7.5-7.5s-7.5 3.4-7.5 7.5v32.5h-116V20c0-4.1-3.4-7.5-7.5-7.5s-7.5 3.4-7.5 7.5v32.5h-115V20c0-4.1-3.4-7.5-7.5-7.5s-7.5 3.4-7.5 7.5v32.5H80c-37.2 0-67.5 30.3-67.5 67.5v312c0 37.2 30.3 67.5 67.5 67.5h153c4.1 0 7.5-3.4 7.5-7.5s-3.4-7.5-7.5-7.5H80c-28.9 0-52.5-23.6-52.5-52.5V120c0-28.9 23.6-52.5 52.5-52.5h37.5V100c0 4.1 3.4 7.5 7.5 7.5s7.5-3.4 7.5-7.5V67.5h115V100c0 4.1 3.4 7.5 7.5 7.5s7.5-3.4 7.5-7.5V67.5h116V100c0 4.1 3.4 7.5 7.5 7.5s7.5-3.4 7.5-7.5V67.5H432c28.9 0 52.5 23.6 52.5 52.5v114c0 4.1 3.4 7.5 7.5 7.5s7.5-3.4 7.5-7.5V120c0-37.2-30.3-67.5-67.5-67.5z"/><path class="agst0" d="M391 282.5c-59.8 0-108.5 48.7-108.5 108.5S331.2 499.5 391 499.5 499.5 450.8 499.5 391 450.8 282.5 391 282.5zm0 202c-51.6 0-93.5-41.9-93.5-93.5s41.9-93.5 93.5-93.5 93.5 41.9 93.5 93.5-41.9 93.5-93.5 93.5z"/><path class="agst0" d="M420 383.5h-21.5V350c0-4.1-3.4-7.5-7.5-7.5s-7.5 3.4-7.5 7.5v41c0 4.1 3.4 7.5 7.5 7.5h29c4.1 0 7.5-3.4 7.5-7.5s-3.4-7.5-7.5-7.5zm-121-156c9.6 0 17.5-7.9 17.5-17.5s-7.9-17.5-17.5-17.5-17.5 7.9-17.5 17.5 7.9 17.5 17.5 17.5zm-87 52c-9.6 0-17.5 7.9-17.5 17.5s7.9 17.5 17.5 17.5 17.5-7.9 17.5-17.5-7.9-17.5-17.5-17.5zm-87-87c-9.6 0-17.5 7.9-17.5 17.5s7.9 17.5 17.5 17.5 17.5-7.9 17.5-17.5-7.9-17.5-17.5-17.5zm0 87c-9.6 0-17.5 7.9-17.5 17.5s7.9 17.5 17.5 17.5 17.5-7.9 17.5-17.5-7.9-17.5-17.5-17.5zm0 87c-9.6 0-17.5 7.9-17.5 17.5s7.9 17.5 17.5 17.5 17.5-7.9 17.5-17.5-7.9-17.5-17.5-17.5zm87 0c-9.6 0-17.5 7.9-17.5 17.5s7.9 17.5 17.5 17.5 17.5-7.9 17.5-17.5-7.9-17.5-17.5-17.5zm0-174c-9.6 0-17.5 7.9-17.5 17.5s7.9 17.5 17.5 17.5 17.5-7.9 17.5-17.5-7.9-17.5-17.5-17.5z"/></symbol><symbol viewBox="0 0 64 64" id="calc" xmlns="http://www.w3.org/2000/svg"><path d="M49 62H15a7.008 7.008 0 01-7-7V9a7.008 7.008 0 017-7h34a7.008 7.008 0 017 7v46a7.008 7.008 0 01-7 7zM15 4a5.006 5.006 0 00-5 5v46a5.006 5.006 0 005 5h34a5.006 5.006 0 005-5V9a5.006 5.006 0 00-5-5z"/><path d="M35 58h-6a3 3 0 01-3-3v-4a3 3 0 013-3h6a3 3 0 013 3v4a3 3 0 01-3 3zm-6-8a1 1 0 00-1 1v4a1 1 0 001 1h6a1 1 0 001-1v-4a1 1 0 00-1-1zm-8 8h-6a3 3 0 01-3-3v-4a3 3 0 013-3h6a3 3 0 013 3v4a3 3 0 01-3 3zm-6-8a1 1 0 00-1 1v4a1 1 0 001 1h6a1 1 0 001-1v-4a1 1 0 00-1-1zm34 8h-6a3 3 0 01-3-3V39a3 3 0 013-3h6a3 3 0 013 3v16a3 3 0 01-3 3zm-6-20a1 1 0 00-1 1v16a1 1 0 001 1h6a1 1 0 001-1V39a1 1 0 00-1-1zm-8 8h-6a3 3 0 01-3-3v-4a3 3 0 013-3h6a3 3 0 013 3v4a3 3 0 01-3 3zm-6-8a1 1 0 00-1 1v4a1 1 0 001 1h6a1 1 0 001-1v-4a1 1 0 00-1-1zm-8 8h-6a3 3 0 01-3-3v-4a3 3 0 013-3h6a3 3 0 013 3v4a3 3 0 01-3 3zm-6-8a1 1 0 00-1 1v4a1 1 0 001 1h6a1 1 0 001-1v-4a1 1 0 00-1-1zm20-4h-6a3 3 0 01-3-3v-4a3 3 0 013-3h6a3 3 0 013 3v4a3 3 0 01-3 3zm-6-8a1 1 0 00-1 1v4a1 1 0 001 1h6a1 1 0 001-1v-4a1 1 0 00-1-1zm-8 8h-6a3 3 0 01-3-3v-4a3 3 0 013-3h6a3 3 0 013 3v4a3 3 0 01-3 3zm-6-8a1 1 0 00-1 1v4a1 1 0 001 1h6a1 1 0 001-1v-4a1 1 0 00-1-1zm34 8h-6a3 3 0 01-3-3v-4a3 3 0 013-3h6a3 3 0 013 3v4a3 3 0 01-3 3zm-6-8a1 1 0 00-1 1v4a1 1 0 001 1h6a1 1 0 001-1v-4a1 1 0 00-1-1zm6-6H15a3 3 0 01-3-3V9a3 3 0 013-3h34a3 3 0 013 3v8a3 3 0 01-3 3zM15 8a1 1 0 00-1 1v8a1 1 0 001 1h34a1 1 0 001-1V9a1 1 0 00-1-1z"/><path d="M46 17a3 3 0 01-3-3v-2a3 3 0 016 0v2a3 3 0 01-3 3zm0-6a1 1 0 00-1 1v2a1 1 0 002 0v-2a1 1 0 00-1-1z"/></symbol><symbol viewBox="0 0 512 512" id="camera" xmlns="http://www.w3.org/2000/svg"><path d="M474.7 91.3h-18.3l1-6.9c1.3-8.6-1-17.1-6.4-23.9-6-7.6-14.9-11.9-24.6-11.9H101.3C84 48.7 70 62.7 70 80v138.7C70 236 84 250 101.3 250h54v32.7c0 17.3 14 31.3 31.3 31.3H230v54c0 18-14.6 32.7-32.7 32.7H98.1l1.3-7.1c.9-4.9 1.3-9.9 1.3-14.9v-21.3c0-5.5-4.5-10-10-10H16c-5.5 0-10 4.5-10 10v96c0 5.5 4.4 10 9.8 10 29.4.1 56.3-14.9 72-39.9l1.8-2.8h107.8c29.1 0 52.7-23.6 52.7-52.7v-54h54c17.3 0 31.3-14 31.3-31.3V250h58.4c12.3 0 23.1-6.9 28.3-17.9l1.6-3.4h50.9c17.3 0 31.3-14 31.3-31.3v-74.7c.1-17.3-13.9-31.4-31.2-31.4zm-394 287.4c0 28.9-19.2 54.3-47 62.2l-7.6 2.2v-75.7h54.7v11.3zm234.6-96c0 6.3-5.1 11.3-11.3 11.3H186.7c-6.3 0-11.3-5.1-11.3-11.3V250h140v32.7zM307 149.3c0 5.5 4.5 10 10 10h102.4l-14.6 61.9c-1.2 5.2-5.8 8.7-11 8.7H101.3c-6.3 0-11.3-5.1-11.3-11.3v-59.3h130c5.5 0 10-4.5 10-10s-4.5-10-10-10H90V80c0-6.3 5.1-11.3 11.3-11.3h325.1c3.5 0 6.7 1.6 8.9 4.3 1.6 2 2.5 4.5 2.5 7.1 0 .9-.1 1.7-.3 2.6l-13.3 56.7H317c-5.5-.1-10 4.4-10 9.9zm179 48c0 6.3-5.1 11.3-11.3 11.3h-46.3l22.9-97.3h23.4c6.3 0 11.3 5.1 11.3 11.3v74.7z"/><path d="M267.3 159.3h2.3c5.5 0 10-4.5 10-10s-4.5-10-10-10h-2.3c-5.5 0-10 4.5-10 10 0 5.6 4.5 10 10 10z"/></symbol><symbol viewBox="0 0 1792 1792" id="cash" xmlns="http://www.w3.org/2000/svg"><path d="M1106.677 770.815v261.621a7.5 7.5 0 01-7.5 7.5h-7.529v42.903a7.505 7.505 0 01-2.465 5.56 7.505 7.505 0 01-5.776 1.903l-21.816-2.166v47.2a7.5 7.5 0 01-9.08 7.332L575.01 1039.786l-.038-.008-.045-.01c-.113-.024-.221-.058-.332-.087-.085-.022-.172-.041-.256-.066-.103-.031-.203-.069-.305-.104l-.112-.04c-.075-.027-.151-.05-.225-.08l-.053-.022c-.091-.038-.18-.082-.269-.123-.094-.043-.189-.082-.281-.129-.023-.012-.045-.026-.068-.039l-.01-.005c-.085-.045-.167-.093-.25-.141-.083-.048-.167-.092-.247-.143-.038-.024-.074-.051-.112-.076-.073-.047-.144-.098-.215-.147-.071-.05-.144-.099-.213-.152-.048-.036-.094-.075-.141-.113a6.869 6.869 0 01-.186-.153c-.059-.051-.119-.101-.177-.153-.056-.05-.109-.104-.163-.156s-.108-.102-.16-.155l-.139-.147c-.061-.066-.12-.135-.179-.204-.046-.053-.094-.103-.138-.157-.036-.044-.069-.09-.104-.135a7.915 7.915 0 01-.174-.235c-.039-.055-.082-.106-.12-.162-.03-.045-.056-.092-.086-.138a7.134 7.134 0 01-.156-.253c-.036-.061-.075-.121-.109-.184l-.09-.171a8.164 8.164 0 01-.298-.64 6.225 6.225 0 01-.161-.44c-.026-.076-.052-.151-.075-.229l-.043-.15c-.028-.099-.05-.2-.073-.301-.019-.081-.041-.161-.057-.243l-.02-.106c-.023-.127-.039-.257-.055-.387-.01-.076-.024-.15-.032-.227l-.005-.055a7.718 7.718 0 01-.032-.684V770.815a7.5 7.5 0 017.5-7.5h522.671a7.5 7.5 0 017.5 7.5zm-85.328 254.121c3.552-37.141 33.187-66.776 70.328-70.328V848.642c-37.141-3.552-66.776-33.187-70.328-70.328H654.334c-3.552 37.142-33.187 66.777-70.328 70.328v105.966c37.141 3.552 66.776 33.187 70.328 70.328h367.015zm-382.108 0c-3.43-28.86-26.375-51.805-55.235-55.235v55.235h55.235zm0-246.621h-55.235v55.235c28.86-3.431 51.805-26.375 55.235-55.235zm452.436 0h-55.235c3.43 28.86 26.375 51.805 55.235 55.235v-55.235zm-45.087 308.332l-339.171-33.677 339.172 73.078-.001-39.401zm30.058-46.711H727.949l348.699 34.622v-34.622zm15.029-15v-55.235c-28.86 3.43-51.805 26.375-55.235 55.235h47.687l.019-.001.019.001h7.51zM916.205 842.744a7.5 7.5 0 00-1.822 10.449c10.001 14.227 15.288 30.974 15.288 48.432 0 46.491-37.824 84.315-84.315 84.315-46.492 0-84.316-37.824-84.316-84.315s37.824-84.315 84.316-84.315c17.459 0 34.208 5.287 48.435 15.29a7.496 7.496 0 0010.449-1.821 7.5 7.5 0 00-1.821-10.449c-16.767-11.788-36.499-18.02-57.063-18.02-54.763 0-99.316 44.553-99.316 99.315s44.553 99.315 99.316 99.315 99.315-44.553 99.315-99.315c0-20.563-6.23-40.293-18.018-57.059-2.38-3.388-7.059-4.202-10.448-1.822z"/><path d="M811.182 905.569h10.883v-54.575c3.882-.915 8.047-1.526 12.492-1.832 4.445-.306 8.864-.46 13.259-.46 4.699 0 9.324.46 13.872 1.38 4.546.92 8.584 2.606 12.109 5.058 3.526 2.452 6.361 5.774 8.507 9.963 2.146 4.191 3.219 9.556 3.219 16.094 0 6.438-1.099 11.803-3.296 16.095-2.198 4.292-5.111 7.767-8.737 10.423-3.628 2.658-7.767 4.548-12.415 5.671a65.911 65.911 0 01-14.179 1.839l-12.109.153v10.883h25.444v9.503h-25.444v21.459h-12.722v-21.459h-10.883v-9.503h10.883v-11.036h-10.883v-9.656zm36.941-46.137c-2.658 0-5.187.077-7.587.23-2.402.153-4.318.381-5.748.687v44.3h11.649c3.066 0 6.131-.304 9.197-.915 3.066-.611 5.825-1.782 8.277-3.513 2.453-1.732 4.446-4.1 5.978-7.104 1.533-3.003 2.246-6.95 2.146-11.841.1-4.175-.486-7.662-1.763-10.464-1.279-2.8-3.015-5.039-5.212-6.72-2.198-1.681-4.752-2.876-7.664-3.59-2.912-.713-6.004-1.07-9.273-1.07z"/></symbol><symbol viewBox="0 0 16 12" id="check" xmlns="http://www.w3.org/2000/svg"><path data-name="Фигура 9" d="M0 6.51L5.48 12 16 1.49 14.49 0 5.48 9 1.49 5.01zm0 0" fill-rule="evenodd"/></symbol><symbol viewBox="0 0 404 404" id="cityscape" xmlns="http://www.w3.org/2000/svg"><path d="M376 376V196h-12v-24h-12v-36h-12v-24h-12v24h-12v36h-12V38.68l-36 7.199V28h-12v20.281l-12 2.399V16h-12v37.078l-12 2.402V28h-12v29.887l-36 7.199V100H64v12h12v72.547c-1.969-.324-3.961-.547-6-.547-23.152 0-42 21.535-42 48 0 24.133 15.684 44.105 36 47.453v7.82C58.977 282.73 52.758 280 46 280c-16.543 0-30 16.145-30 36 0 17.387 10.324 31.926 24 35.273V376H16v12h372v-12h-12zm-264-6c0-9.926 8.074-18 18-18 6.48 0 12.492 3.512 15.691 9.16l1.86 3.297L154 364c1.766 0 3.625.344 5.688 1.039l5.832 1.953 1.82-5.871C171.242 348.488 182.766 340 196 340c10.906 0 20.977 5.945 26.273 15.523l3.75 6.789 5.629-5.339c6.762-6.407 17.926-6.407 24.692 0l5.625 5.339 3.75-6.789C271.023 345.945 281.094 340 292 340c13.027 0 24.484 8.328 28.52 20.723l1.683 5.179 5.324-1.175c11.891-2.641 23.512 2.253 30.348 11.273H113.164c-.684-1.934-1.164-3.93-1.164-6zm252-162v156.82c-3.48-3.562-7.52-6.496-12-8.644V220h-84v115.621c-3.367 2.352-6.434 5.149-9.012 8.422-.961-.559-1.968-1.031-2.988-1.469V208h108zm-72 120c-4.129 0-8.152.672-12 1.824V232h24v97.738A42.177 42.177 0 00292 328zm24-96h24v120.562c-3.258-.472-6.574-.699-9.965-.371-3.176-6.796-8.082-12.425-14.035-16.582V232zm-48-36v-12h84v12h-84zm60-48h12v24h-12v-24zm-36-94.68V172h-36v24h-12v144.09c-5.23 0-10.457 1.32-14.988 3.953C221.121 334.02 208.988 328 196 328a42.54 42.54 0 00-12 1.723V74.914L292 53.32zM88 112h84v223.566c-6 4.176-10.934 9.86-14.105 16.735a29.864 29.864 0 00-3.883-.281C148.391 344.523 139.496 340 130 340c-16.543 0-30 13.457-30 30 0 2.027.27 4.027.672 6H76v-21.785l36-41.996v-14.766c20.316-3.348 36-23.32 36-47.453 0-18.059-8.785-33.809-21.715-42H136v-12h-12v10.699c-5.465-2.984-11.555-4.699-18-4.699-1.031 0-2.09.066-3.156.168-3.965-5.695-9.043-10.309-14.844-13.469V112zm24 120a53.719 53.719 0 00-3.035-17.82C124.121 215.973 136 231.352 136 250c0 19.855-13.457 36-30 36-7.57 0-14.766-3.484-20.258-9.535C101.117 269.332 112 252.102 112 232zm-36 51.484c6.438 7.551 14.832 12.481 24 13.989v10.312l-24 28.004v-52.305zM40 232c0-19.855 13.457-36 30-36s30 16.145 30 36c0 17.387-10.324 31.926-24 35.273V226H64v41.273C50.324 263.926 40 249.387 40 232zm-12 84c0-13.234 8.074-24 18-24s18 10.766 18 24-8.074 24-18 24-18-10.766-18-24zm24 35.273c4.441-1.085 8.508-3.382 12-6.539V376H52v-24.727zm0 0"/><path d="M232 88h-36v48h36V88zm-12 36h-12v-24h12v24zm12 24h-36v48h36v-48zm-12 36h-12v-24h12v24zm12 24h-36v48h36v-48zm-12 36h-12v-24h12v24zm12 24h-36v48h36v-48zm-12 36h-12v-24h12v24zm60-216h-36v48h36V88zm-12 36h-12v-24h12v24zm-168 0h12v12h-12zm24 0h12v12h-12zm24 0h12v12h-12zm-48 24h12v12h-12zm24 0h12v12h-12zm24 0h12v12h-12zm-24 24h12v12h-12zm-24 0h12v12h-12zm48 0h12v12h-12zm0 24h12v12h-12z"/></symbol><symbol viewBox="-49 141 512 512" id="cityscape_2" xmlns="http://www.w3.org/2000/svg"><path d="M455.396 527.046h-50.102v-62.132a7.605 7.605 0 00-15.208 0v172.083H259.585V411.093h130.501v18.333a7.605 7.605 0 0015.208 0V403.49a7.605 7.605 0 00-7.604-7.604H293.796V149.4a7.605 7.605 0 00-7.604-7.604H128.04a7.605 7.605 0 00-7.604 7.604v113.752H22.075a7.605 7.605 0 00-7.604 7.604V457.71h-55.867A7.605 7.605 0 00-49 465.314V644.6a7.605 7.605 0 007.604 7.604h221.625l.019-.001h217.423l.019.001h57.706A7.605 7.605 0 00463 644.6V534.65a7.605 7.605 0 00-7.604-7.604zM135.644 157.004h142.943v238.883H251.98a7.604 7.604 0 00-7.604 7.604v233.508h-56.544V270.755a7.604 7.604 0 00-7.604-7.604h-10.367v-15.207a7.604 7.604 0 00-15.208 0v15.207h-19.01V157.004zM29.679 465.314v-23.959h142.946v35.99H29.679v-12.031zm142.946-90.363H29.679v-35.99h142.946v35.99zm0 15.207v35.989H29.679v-35.989h142.946zM29.679 543.75h38.929a7.605 7.605 0 000-15.208H29.679v-35.99h142.946v35.99h-68.531a7.605 7.605 0 000 15.208h68.531v35.99H29.679v-35.99zm142.946-265.391v45.394H29.679v-45.394h142.946zM-33.792 472.918h48.263v164.078h-48.263V472.918zm63.471 122.03h142.946v42.048H128.04v.001H29.679v-42.049zm418.113 42.048h-42.497v-94.743h42.497v94.743z"/><path d="M251.981 344.562c4.2 0 7.604-3.405 7.604-7.604v-22.811a7.604 7.604 0 00-15.208 0v22.811a7.603 7.603 0 007.604 7.604zm-44.861 0c4.2 0 7.604-3.405 7.604-7.604v-22.811a7.604 7.604 0 00-15.208 0v22.811a7.603 7.603 0 007.604 7.604zm44.861-66.203c4.2 0 7.604-3.405 7.604-7.604v-22.811a7.604 7.604 0 00-15.208 0v22.811a7.605 7.605 0 007.604 7.604zm-44.861 0c4.2 0 7.604-3.405 7.604-7.604v-22.811a7.604 7.604 0 00-15.208 0v22.811a7.604 7.604 0 007.604 7.604zm-44.862-66.203c4.2 0 7.604-3.405 7.604-7.604v-22.811a7.604 7.604 0 00-15.208 0v22.811a7.605 7.605 0 007.604 7.604zm89.723 0c4.2 0 7.604-3.405 7.604-7.604v-22.811a7.604 7.604 0 00-15.208 0v22.811a7.605 7.605 0 007.604 7.604zm-44.861 0c4.2 0 7.604-3.405 7.604-7.604v-22.811a7.604 7.604 0 00-15.208 0v22.811a7.604 7.604 0 007.604 7.604zm37.841 171.43c1.215 2.868 4.073 4.766 7.202 4.689 3.188-.078 6.025-2.187 7.034-5.211 2.216-6.651-5.39-12.509-11.279-8.803-3.077 1.936-4.371 5.963-2.957 9.325zm-37.841 27.508c4.2 0 7.604-3.405 7.604-7.604v-22.811a7.604 7.604 0 00-15.208 0v22.811c0 4.2 3.404 7.604 7.604 7.604zm0 199.596c4.2 0 7.604-3.405 7.604-7.604v-22.811a7.604 7.604 0 00-15.208 0v22.811a7.604 7.604 0 007.604 7.604zm0-66.532c4.2 0 7.604-3.405 7.604-7.604v-22.811a7.604 7.604 0 00-15.208 0v22.811a7.604 7.604 0 007.604 7.604zm0-66.532c4.2 0 7.604-3.405 7.604-7.604v-22.811a7.604 7.604 0 00-15.208 0v22.811c0 4.2 3.404 7.604 7.604 7.604zm159.777 92.729h-84.123a7.604 7.604 0 000 15.208h84.123a7.604 7.604 0 000-15.208zm0 35.944h-84.123a7.604 7.604 0 000 15.208h84.123a7.604 7.604 0 000-15.208zm0-71.886h-84.123a7.604 7.604 0 000 15.208h84.123a7.604 7.604 0 000-15.208zm0-107.83h-84.123a7.604 7.604 0 000 15.208h84.123a7.604 7.604 0 000-15.208zm0 71.886h-84.123a7.604 7.604 0 000 15.208h84.123a7.604 7.604 0 000-15.208zm0-35.942h-84.123a7.604 7.604 0 000 15.208h84.123a7.604 7.604 0 000-15.208zM-9.661 485.004a7.604 7.604 0 00-7.604 7.604v19.769a7.604 7.604 0 0015.208 0v-19.769a7.605 7.605 0 00-7.604-7.604zm0 52.465a7.604 7.604 0 00-7.604 7.604v19.769a7.604 7.604 0 0015.208 0v-19.769c0-4.2-3.405-7.604-7.604-7.604zm0 52.465a7.604 7.604 0 00-7.604 7.604v19.769a7.604 7.604 0 0015.208 0v-19.769c0-4.2-3.405-7.604-7.604-7.604zm436.205 7.296c4.2 0 7.604-3.405 7.604-7.604v-21.52a7.604 7.604 0 00-15.208 0v21.52a7.603 7.603 0 007.604 7.604zM311.488 303.501h92.763a7.604 7.604 0 000-15.208h-92.763a7.604 7.604 0 000 15.208zm47.141 24.331a7.604 7.604 0 007.604 7.604h66.912a7.604 7.604 0 000-15.208h-66.912a7.604 7.604 0 00-7.604 7.604zm-337.6-114.053h66.912a7.604 7.604 0 000-15.208H21.029a7.604 7.604 0 000 15.208zm-38.017 25.345h66.912a7.604 7.604 0 000-15.208h-66.912a7.604 7.604 0 000 15.208z"/></symbol><symbol viewBox="0 0 512 512" id="date" xmlns="http://www.w3.org/2000/svg"><path d="M456 64h-40V48c0-17.673-14.327-32-32-32s-32 14.327-32 32v16h-64V48c0-17.673-14.327-32-32-32s-32 14.327-32 32v16h-64V48c0-17.673-14.327-32-32-32S96 30.327 96 48v16H56c-22.091 0-40 17.909-40 40v320c0 22.091 17.909 40 40 40h224a8 8 0 000-16H56c-13.238-.04-23.96-10.762-24-24V176h448v136a8 8 0 0016 0V104c0-22.091-17.909-40-40-40zm-88-16c0-8.837 7.163-16 16-16s16 7.163 16 16v48c0 8.837-7.163 16-16 16s-16-7.163-16-16V48zm-128 0c0-8.837 7.163-16 16-16s16 7.163 16 16v48c0 8.837-7.163 16-16 16s-16-7.163-16-16V48zm-128 0c0-8.837 7.163-16 16-16s16 7.163 16 16v48c0 8.837-7.163 16-16 16s-16-7.163-16-16V48zm368 112H32v-56c.04-13.238 10.762-23.96 24-24h40v16c0 17.673 14.327 32 32 32s32-14.327 32-32V80h64v16c0 17.673 14.327 32 32 32s32-14.327 32-32V80h64v16c0 17.673 14.327 32 32 32s32-14.327 32-32V80h40c13.238.04 23.96 10.762 24 24v56z"/><path d="M240 232c0-8.837-7.163-16-16-16h-32c-8.837 0-16 7.163-16 16v24c0 8.837 7.163 16 16 16h32c8.837 0 16-7.163 16-16v-24zm-48 24v-24h32v24h-32zm-48-24c0-8.837-7.163-16-16-16H96c-8.837 0-16 7.163-16 16v24c0 8.837 7.163 16 16 16h32c8.837 0 16-7.163 16-16v-24zm-48 24v-24h32v24H96zm320 16c8.837 0 16-7.163 16-16v-24c0-8.837-7.163-16-16-16h-32c-8.837 0-16 7.163-16 16v24c0 8.837 7.163 16 16 16h32zm-32-40h32v24h-32v-24zm-144 72c0-8.837-7.163-16-16-16h-32c-8.837 0-16 7.163-16 16v24c0 8.837 7.163 16 16 16h32c8.837 0 16-7.163 16-16v-24zm-48 24v-24h32v24h-32zm-48-24c0-8.837-7.163-16-16-16H96c-8.837 0-16 7.163-16 16v24c0 8.837 7.163 16 16 16h32c8.837 0 16-7.163 16-16v-24zm-48 24v-24h32v24H96zm128 32h-32c-8.837 0-16 7.163-16 16v24c0 8.837 7.163 16 16 16h32c8.837 0 16-7.163 16-16v-24c0-8.837-7.163-16-16-16zm-32 40v-24h32v24h-32zm96-128h32c8.837 0 16-7.163 16-16v-24c0-8.837-7.163-16-16-16h-32c-8.837 0-16 7.163-16 16v24c0 8.837 7.163 16 16 16zm0-40h32v24h-32v-24zm-16 96c0 8.837 7.163 16 16 16a8 8 0 000-16v-24h32a8 8 0 000-16h-32c-8.837 0-16 7.163-16 16v24zm-144 32H96c-8.837 0-16 7.163-16 16v24c0 8.837 7.163 16 16 16h32c8.837 0 16-7.163 16-16v-24c0-8.837-7.163-16-16-16zm-32 40v-24h32v24H96z"/><path d="M392 288c-57.438 0-104 46.562-104 104s46.562 104 104 104 104-46.562 104-104c-.066-57.41-46.59-103.934-104-104zm0 192c-48.601 0-88-39.399-88-88s39.399-88 88-88 88 39.399 88 88c-.057 48.577-39.423 87.943-88 88z"/><path d="M438.224 358.464L376 420.688 347.72 392.4a8 8 0 00-11.312.196 8 8 0 000 11.116l33.936 33.944a8 8 0 0011.312 0l67.88-67.88a8 8 0 00-.196-11.312 8 8 0 00-11.116 0z"/></symbol><symbol viewBox="0 0 480 480" id="dialog" xmlns="http://www.w3.org/2000/svg"><path d="M454.672 194.872C470.024 183.176 480 164.752 480 144c0-35.288-28.712-64-64-64s-64 28.712-64 64c0 19.12 8.472 36.264 21.808 48h-42.496l-53.656-53.656a7.991 7.991 0 00-11.312 0l-32 32a7.991 7.991 0 000 11.312l72 72A7.965 7.965 0 00312 256h64v56H238.944l39.712-59.56-13.312-8.872L219.72 312H200v-40c0-4.424-3.576-8-8-8h-64v-32c0-16.864-10.528-31.256-25.328-37.128C118.024 183.176 128 164.752 128 144c0-35.288-28.712-64-64-64S0 108.712 0 144c0 20.752 9.976 39.176 25.328 50.872C10.528 200.744 0 215.136 0 232v112c0 22.056 17.944 40 40 40v96h16v-96h56v88c0 4.424 3.576 8 8 8h56c4.424 0 8-3.576 8-8V352c0-9-2.984-17.312-8.016-24H232v136h-32v16h80v-16h-32V328h56.208c-5.08 6.704-8.208 14.96-8.208 24v120c0 4.424 3.576 8 8 8h56c4.424 0 8-3.576 8-8v-88h56v96h16v-96c22.056 0 40-17.944 40-40V232c0-16.864-10.528-31.256-25.328-37.128zM16 144c0-26.472 21.528-48 48-48s48 21.528 48 48-21.528 48-48 48-48-21.528-48-48zm168 168H80v-64H64v72c0 4.424 3.576 8 8 8h72c13.232 0 24 10.768 24 24v112h-40v-88c0-4.424-3.576-8-8-8H40c-13.232 0-24-10.768-24-24V232c0-13.232 10.768-24 24-24h48c13.232 0 24 10.768 24 24v40c0 4.424 3.576 8 8 8h64v32zm184-168c0-26.472 21.528-48 48-48s48 21.528 48 48-21.528 48-48 48-48-21.528-48-48zm96 200c0 13.232-10.768 24-24 24h-80c-4.424 0-8 3.576-8 8v88h-40V352c0-13.232 10.768-24 24-24h48c4.424 0 8-3.576 8-8v-72c0-4.424-3.576-8-8-8h-68.688l-64-64L272 155.312l50.344 50.344A7.965 7.965 0 00328 208h112c13.232 0 24 10.768 24 24v112z"/><path d="M320 0H160c-13.232 0-24 10.768-24 24v64c0 13.232 10.768 24 24 24h8v48a7.992 7.992 0 008 8c2.08 0 4.128-.816 5.656-2.344L235.312 112H320c13.232 0 24-10.768 24-24V24c0-13.232-10.768-24-24-24zm8 88c0 4.416-3.584 8-8 8h-88c-2.128 0-4.16.84-5.656 2.344L184 140.688V104c0-4.424-3.576-8-8-8h-16c-4.416 0-8-3.584-8-8V24c0-4.416 3.584-8 8-8h160c4.416 0 8 3.584 8 8v64z"/><path d="M168 32h48v16h-48zm0 32h144v16H168zm64-32h80v16h-80z"/></symbol><symbol viewBox="0 0 480 480" id="doc" xmlns="http://www.w3.org/2000/svg"><path d="M160 344h-16a8 8 0 000 16h16a8 8 0 000-16zm224 0H192a8 8 0 000 16h192a8 8 0 000-16zm-224-48h-16a8 8 0 000 16h16a8 8 0 000-16zm224 0H192a8 8 0 000 16h192a8 8 0 000-16zm-224-48h-16a8 8 0 000 16h16a8 8 0 000-16zm224 0H192a8 8 0 000 16h192a8 8 0 000-16zm-224-48h-16a8 8 0 000 16h16a8 8 0 000-16zm224 0H192a8 8 0 000 16h192a8 8 0 000-16zm-224-48h-16a8 8 0 000 16h16a8 8 0 000-16zm224 0H192a8 8 0 000 16h192a8 8 0 000-16z"/><path d="M439.896 119.496a7.557 7.557 0 00-.408-2.056c-.088-.256-.152-.504-.264-.752a7.998 7.998 0 00-1.6-2.344l-112-112a7.998 7.998 0 00-2.344-1.6c-.248-.112-.496-.176-.744-.264a7.967 7.967 0 00-2.072-.416C320.328.088 320.176 0 320 0H96a8 8 0 00-8 8v24H48a8 8 0 00-8 8v432a8 8 0 008 8h336a8 8 0 008-8v-40h40a8 8 0 008-8V120c0-.176-.088-.328-.104-.504zM328 27.312L412.688 112H328V27.312zM376 464H56V48h32v376a8 8 0 008 8h280v32zm48-48H104V16h208v104a8 8 0 008 8h104v288z"/><path d="M192 72h-48a8 8 0 00-8 8v48a8 8 0 008 8h48a8 8 0 008-8V80a8 8 0 00-8-8zm-8 48h-32V88h32v32z"/></symbol><symbol viewBox="0 0 388.165 389.259" id="home" xmlns="http://www.w3.org/2000/svg"><path d="M344.084 363.879V157.418l7.891 5.359c1 .676 2.171 1.04 3.371 1.04a6.005 6.005 0 004.961-2.637l13.476-19.863a5.995 5.995 0 00-1.594-8.336L197.455 14.414a6.004 6.004 0 00-6.738 0L15.975 132.988a5.999 5.999 0 00-1.598 8.332l13.477 19.868a5.979 5.979 0 003.835 2.527 6.023 6.023 0 004.5-.934l7.895-5.363v60.031a14.909 14.909 0 00-7.895 8.106c-10.085 24.937-22.105 57.707-22.105 72.324 0 21.539 12.539 38.27 30 41.418v24.582h-30v12h360v-12h-30zM34.42 149.481l-6.738-9.942L194.084 26.625l166.402 112.914-6.738 9.938L197.455 43.418c-1.019-.687-2.195-1.035-3.371-1.035s-2.352.348-3.371 1.035L34.42 149.481zm-8.336 148.398c0-9.75 7.734-34.469 21.223-67.824.687-1.699 2.172-1.879 2.777-1.879s2.09.18 2.777 1.879c13.489 33.355 21.223 58.074 21.223 67.824 0 17.383-10.098 30-24 30s-24-12.617-24-30zm138 66h-54v-108h54v108zm72 0h-12v-76.184l6-9 6 9v76.184zm24 0h-12v-30h12v30zm0-42h-12v-12h12v12zm24 42h-12v-76.184l6-9 6 9v76.184zm24 0h-12v-30h12v30zm0-42h-12v-12h12v12zm24 42h-12v-76.184l6-9 6 9v76.184zm0-97.812l-1.008-1.512c-2.226-3.34-7.758-3.34-9.984 0l-12 18a5.997 5.997 0 00-1.008 3.324v12h-12v-12a6.02 6.02 0 00-1.008-3.328l-12-18c-2.226-3.344-7.758-3.344-9.984 0l-12 18a6.02 6.02 0 00-1.008 3.328v12h-12v-12a6.02 6.02 0 00-1.008-3.328l-12-18c-2.226-3.344-7.758-3.344-9.984 0l-12 18a6.02 6.02 0 00-1.008 3.328v78h-36v-114c0-3.316-2.684-6-6-6h-66c-3.316 0-6 2.684-6 6v114h-42v-24.582c17.461-3.148 30-19.879 30-41.418 0-14.617-12.02-47.387-22.105-72.324a14.909 14.909 0 00-7.895-8.106v-68.172l138-93.64 138 93.64v116.79z"/><path d="M152.084 141.879v36c0 13.234 10.766 24 24 24h36c13.234 0 24-10.766 24-24v-36c0-13.234-10.766-24-24-24h-36c-13.234 0-24 10.766-24 24zm36 48h-12c-6.617 0-12-5.383-12-12v-12h24v24zm12-60h12c6.617 0 12 5.383 12 12v12h-24v-24zm0 36h24v12c0 6.617-5.383 12-12 12h-12v-24zm-12-12h-24v-12c0-6.617 5.383-12 12-12h12v24zm-48 150h12v12h-12z"/></symbol><symbol viewBox="0 0 152.47 152.88" id="kran" xmlns="http://www.w3.org/2000/svg"><path d="M43.2 91.72h5.08v-5.1H43.2v5.1zm10.16 0h5.08v-5.1h-5.08v5.1zm10.17 0h5.08v-5.1h-5.08v5.1zM43.2 101.91h5.08v-5.1H43.2v5.1zm10.16 0h5.08v-5.1h-5.08v5.1zm10.17 0h5.08v-5.1h-5.08v5.1zm10.16 0h5.08v-5.1h-5.08v5.1zm15.25-5.1h-5.08v5.1h5.08v-5.1zM43.2 112.1h5.08V107H43.2v5.1zm10.16 0h5.08V107h-5.08v5.1zm10.17 0h5.08V107h-5.08v5.1zm10.16 0h5.08V107h-5.08v5.1zm15.25-5.1h-5.08v5.1h5.08V107zM43.2 122.29h5.08v-5.1H43.2v5.1zm10.16 0h5.08v-5.1h-5.08v5.1zm10.17 0h5.08v-5.1h-5.08v5.1zm10.16 0h5.08v-5.1h-5.08v5.1zm15.25-5.1h-5.08v5.1h5.08v-5.1zM43.2 132.48h5.08v-5.1H43.2v5.1zm10.16 0h5.08v-5.1h-5.08v5.1zm10.17 0h5.08v-5.1h-5.08v5.1zm10.16 0h5.08v-5.1h-5.08v5.1zm15.25-5.1h-5.08v5.1h5.08v-5.1zM43.2 142.67h5.08v-5.1H43.2v5.1zm10.16 0h5.08v-5.1h-5.08v5.1zm10.17 0h5.08v-5.1h-5.08v5.1zm10.16 0h5.08v-5.1h-5.08v5.1zm15.25-5.1h-5.08v5.1h5.08v-5.1zm61.55 10.19a7.585 7.585 0 00-3.66-12.44 7.63 7.63 0 10-14.13 0 7.575 7.575 0 00-3.66 12.44h-4.52V28.02h5.08a2.544 2.544 0 002.54-2.54v-2.55h17.79a2.546 2.546 0 002.54-2.55V10.19a2.546 2.546 0 00-2.54-2.55h-17.79V2.55A2.546 2.546 0 00129.6 0h-25.42a2.546 2.546 0 00-2.54 2.55v5.09H2.53a2.546 2.546 0 00-2.54 2.55v10.19a2.546 2.546 0 002.54 2.55h7.63v48.4a2.546 2.546 0 002.54 2.55 2.55 2.55 0 11-2.54 2.55H5.08a7.556 7.556 0 001.94 5.05L.5 90.19l.03.02a2.507 2.507 0 00-.54 1.51v10.19a2.552 2.552 0 00.75 1.8l5.08 5.09a2.535 2.535 0 001.8.75h10.16a2.535 2.535 0 001.8-.75l5.08-5.09a2.552 2.552 0 00.75-1.8V91.72a2.507 2.507 0 00-.54-1.51l.03-.02-6.52-8.71a7.606 7.606 0 00-3.14-12.26V22.93h86.4v2.55a2.544 2.544 0 002.54 2.54h5.09v119.74H99.1V45.86h-5.08v10.19H78.77v-5.1h-5.08v5.1H58.44V53.5h-5.08v2.55H38.11v-7.64h33.04v-5.1H38.11V33.12h-5.08v114.64H29l-11.96-11.99a2.553 2.553 0 00-3.6 0L1.48 147.76H-.01v5.1h152.48v-5.1h-1.98zm-3.1-134.51v4.58h-6.87zm-15.25-.51H139l-6.86 4.58v-4.58zM5.08 17.83v-5.09h1.78l7.62 5.09h-9.4zm15.24 76.43v6.59l-3.59 3.6H8.67l-3.59-3.6v-6.59h15.24zm-2.54-5.09H7.62l3.81-5.1h2.54zm5.09-71.85L16 12.74h13.73zm8.38.51l6.86-4.58 6.86 4.58H31.25zm22.11-.51l-6.86-4.58h13.72zm8.39.51l6.86-4.58 6.86 4.58H61.75zm22.11-.51l-6.87-4.58h13.73zm17.78.51h-9.4l7.62-5.09h1.78v5.09zM8.67 147.76l6.57-6.58 6.57 6.58H8.67zm49.77-86.62h15.25v21.91l-5.84-5.79a2.546 2.546 0 00-1.78-.73h-7.63V61.14zm-20.33 0h15.25v4.25H38.11v-4.25zm55.91 86.62H38.11V70.49h15.25v8.59a2.546 2.546 0 002.54 2.55h9.12l9.43 9.35a2.6 2.6 0 001.78.74h17.79v56.04zm0-61.14H78.77V61.14h15.25v25.48zM106.73 5.1h10.16v10.19h-10.16V5.1zm0 17.83v-2.55h12.7a2.539 2.539 0 002.54-2.55V5.1h5.09v17.83h-20.33zm10.5 5.09l-2.88 4.34v-4.34h2.88zm1.69 28.03l-4.57 6.88V49.17zm0 30.57l-4.57 6.88V79.74zm0 30.57l-4.57 6.88v-13.76zm-4.57 30.57v-6.87l4.57 6.87h-4.57zm5.08-8.4l-4.57-6.88 4.57-6.88v13.76zm0-30.59l-4.57-6.86 4.57-6.88v13.74zm0-30.56l-4.57-6.88 4.57-6.87v13.75zm0-30.57l-4.57-6.88 4.57-6.88v13.76zm15.25 97.58a2.55 2.55 0 112.54-2.55 2.546 2.546 0 01-2.54 2.55zm5.08-10.19a2.55 2.55 0 112.54-2.55 2.546 2.546 0 01-2.54 2.55zm5.09 10.19a2.55 2.55 0 112.54-2.55 2.548 2.548 0 01-2.54 2.55z" fill-rule="evenodd"/></symbol><symbol viewBox="0 0 496 496" id="operator" xmlns="http://www.w3.org/2000/svg"><path d="M402.524 432l-18.52-55.568a56.001 56.001 0 00-43.112-37.384l-53.464-9.728v-4.144c9.304-5.4 17.4-12.624 23.848-21.176h16.152c13.232 0 24-10.768 24-24v-96c0-57.344-46.656-104-104-104s-104 46.656-104 104v56c0 15.424 10.968 28.328 25.512 31.336 4.488 22.992 18.856 42.448 38.488 53.84v4.144l-53.472 9.728a55.99 55.99 0 00-43.104 37.384l-3.2 9.608-27.248-27.248c-3.12-3.12-3.12-8.2 0-11.32l31.6-31.592-59.312-59.312L16.98 292.28C6.404 302.856.58 316.92.58 331.88s5.824 29.016 16.4 39.592l108.12 108.12C135.676 490.168 149.74 496 164.7 496s29.016-5.832 39.344-16.168l38.968-35.704L230.86 432h171.664zm-67.096-152c0 4.416-3.592 8-8 8H320.7a79.46 79.46 0 005.216-16.664c3.424-.712 6.576-2.072 9.512-3.784V280zm-8-26.224v-27.552c4.76 2.776 8 7.88 8 13.776s-3.24 11-8 13.776zm-160 0c-4.76-2.776-8-7.88-8-13.776s3.24-11 8-13.776v27.552zm0-53.776v9.136a31.73 31.73 0 00-8 3.312V184c0-48.52 39.48-88 88-88s88 39.48 88 88v28.448a31.44 31.44 0 00-8-3.312V200h-8c-23.656 0-45.896-9.216-62.632-25.944l-9.368-9.368-9.368 9.368C221.324 190.784 199.084 200 175.428 200h-8zm16 56v-40.304c24.024-1.808 46.424-11.72 64-28.432 17.576 16.712 39.976 26.632 64 28.432V256c0 11.664-3.184 22.576-8.656 32h-55.344v16h42.192c-11.28 9.928-26.024 16-42.192 16-35.288 0-64-28.712-64-64zm88 76.312v.376l-24 24-24-24v-.376c7.584 2.384 15.64 3.688 24 3.688s16.416-1.304 24-3.688zM126.02 381.488a40.014 40.014 0 0130.792-26.712l55.92-10.16 34.696 34.696 34.688-34.688 55.912 10.16a40 40 0 0130.792 26.712L380.332 416H214.86l-31.16-31.16-34.624 31.32c-3.016 3.032-8.288 3.032-11.312 0l-17.472-17.472 5.728-17.2zM52.684 279.192l36.688 36.688-8.688 8.688-36.688-36.688 8.688-8.688zm140.28 189.104c-7.552 7.536-17.6 11.704-28.28 11.704s-20.728-4.168-28.288-11.72L28.276 360.168c-7.552-7.552-11.712-17.6-11.712-28.28 0-10.688 4.16-20.736 11.712-28.288l4.4-4.4 36.688 36.688-.288.288c-9.352 9.36-9.352 24.584 0 33.944l57.368 57.368c4.536 4.528 10.56 7.032 16.976 7.032s12.44-2.496 16.68-6.752l.6-.536 36.856 36.856-4.592 4.208zm16.4-15.04l-36.776-36.776 10.568-9.552 36.712 36.712-10.504 9.616zM471.428 0h-112c-13.232 0-24 10.768-24 24v64c0 13.232 10.768 24 24 24h21.368l-8.272 48.248 77.2-48.248h21.704c13.232 0 24-10.768 24-24V24c0-13.232-10.768-24-24-24zm8 88c0 4.408-3.592 8-8 8h-26.296l-50.808 31.752L399.772 96h-40.344c-4.408 0-8-3.592-8-8V24c0-4.408 3.592-8 8-8h112c4.408 0 8 3.592 8 8v64z"/><path d="M367.428 32h96v16h-96zm0 32h64v16h-64zm80 0h16v16h-16zm-200-40C142.9 24 52.86 96.304 29.452 197.16l-15.16-25.272-13.72 8.232 28.12 46.856 46.856-28.12-8.232-13.72-21.68 13.008C68.308 105.88 151.276 40 247.428 40c21.016 0 41.752 3.12 61.632 9.28L313.796 34c-21.416-6.64-43.744-10-66.368-10zM491.54 177.136l-46.856-28.12-28.112 46.864 13.72 8.232 14-23.336c7.368 21.56 11.136 44.112 11.136 67.224 0 47.576-16.48 94.088-46.392 130.96l12.424 10.08c32.224-39.712 49.968-89.808 49.968-141.04 0-24.472-3.944-48.368-11.632-71.248l23.512 14.104 8.232-13.72z"/></symbol><symbol viewBox="197 387.055 20 20" id="phone_call" xmlns="http://www.w3.org/2000/svg"><path d="M213.717 390.336c-3.711-3.709-9.726-3.708-13.435.002-3.709 3.711-3.709 9.726.002 13.435a9.5 9.5 0 0013.433-13.437zm-1.831 10.45l-.481.478c-.623.63-1.529.89-2.391.684a8.394 8.394 0 01-2.445-1.096 11.226 11.226 0 01-1.928-1.555 11.39 11.39 0 01-1.441-1.748 8.876 8.876 0 01-1.083-2.191 2.533 2.533 0 01.633-2.587l.564-.564a.403.403 0 01.569-.001l.001.001 1.78 1.78a.403.403 0 01.001.569l-.001.001-1.045 1.045a.851.851 0 00-.089 1.108 12.17 12.17 0 001.251 1.46 12.17 12.17 0 001.647 1.384.86.86 0 001.096-.095l1.01-1.026a.403.403 0 01.569-.001l.001.001 1.783 1.786a.403.403 0 01.001.569l-.001.001v-.003z"/></symbol><symbol viewBox="198.5 386 17 22" id="place" xmlns="http://www.w3.org/2000/svg"><path d="M207 407.5a.673.673 0 01-.526-.258l-5.809-7.245a6.778 6.778 0 01-1.159-2.032 8.923 8.923 0 01.93-7.813c1.51-2.32 3.903-3.651 6.564-3.651 2.662 0 5.055 1.331 6.564 3.651a8.929 8.929 0 01.928 7.818 6.783 6.783 0 01-1.159 2.03l-5.807 7.243a.675.675 0 01-.526.257zm0-19.531c-2.201 0-4.179 1.1-5.427 3.018a7.38 7.38 0 00-.772 6.464c.19.545.497 1.078.914 1.591l5.285 6.592 5.282-6.588.003-.004a5.3 5.3 0 00.912-1.587 7.386 7.386 0 00-.771-6.469c-1.247-1.918-3.225-3.017-5.426-3.017z"/><path d="M207 399.08c-2.135 0-3.872-1.844-3.872-4.112 0-2.267 1.737-4.112 3.872-4.112s3.872 1.845 3.872 4.112c.001 2.268-1.736 4.112-3.872 4.112zm0-6.755c-1.373 0-2.489 1.186-2.489 2.643s1.117 2.643 2.489 2.643 2.489-1.186 2.489-2.643-1.116-2.643-2.489-2.643z"/></symbol><symbol viewBox="0 0 307.487 403.575" id="place_maps" xmlns="http://www.w3.org/2000/svg"><path d="M275.557 74.701C247.555 31.65 203.149 6.951 153.75 6.951c-49.38 0-93.786 24.699-121.807 67.751-27.89 42.828-34.311 97.07-17.257 144.983 4.565 13.083 11.821 25.794 21.507 37.708L143.99 391.837c2.431 3.043 5.994 4.788 9.761 4.788 3.767 0 7.33-1.744 9.76-4.769L271.27 257.448c9.742-11.988 16.979-24.699 21.507-37.67 17.091-48.006 10.652-102.229-17.22-145.077zm-147.191 84.31v19.334H98.48v-19.334h29.886zM98.48 144.066v-19.334h29.886v19.334H98.48zm29.886 49.223v19.334H98.48v-19.334h29.886zm0 34.279v19.334H98.48v-19.334h29.886zm79.658-68.557v19.334h-29.886v-19.334h29.886zm-29.885-14.945v-19.334h29.886v19.334h-29.886zm29.885 49.223v19.334h-29.886v-19.334h29.886zm0 34.279v19.334h-29.886v-19.334h29.886zm-39.338-83.502H138.8v-19.334h29.886v19.334zm0 14.945v19.334H138.8v-19.334h29.886zm0 42.848v45.043H138.8v-45.043h29.886zm49.988 55.219V80.876L83.25 114.564v138.44c-26.905-20.991-44.208-53.715-44.208-90.483 0-63.348 51.353-114.701 114.701-114.701s114.701 51.353 114.701 114.701c0 39.243-19.712 73.877-49.77 94.557z"/><path d="M153.743 47.821c-63.348 0-114.701 51.353-114.701 114.701 0 36.768 17.303 69.493 44.208 90.483v-138.44l135.424-33.689v176.203c30.058-20.68 49.77-55.314 49.77-94.557 0-63.348-51.353-114.701-114.701-114.701z"/><path d="M178.139 124.732h29.886v19.334h-29.886zm0 34.279h29.886v19.334h-29.886zm-39.338-34.279h29.886v19.334h-29.886zm0 34.279h29.886v19.334h-29.886zm39.338 34.278h29.886v19.334h-29.886zm0 34.279h29.886v19.334h-29.886zM98.48 124.732h29.886v19.334H98.48zm0 34.279h29.886v19.334H98.48zm0 34.278h29.886v19.334H98.48zm0 34.279h29.886v19.334H98.48zm40.321-25.709h29.886v45.043h-29.886z"/></symbol><symbol viewBox="0 0 307.487 403.575" id="place_maps2" xmlns="http://www.w3.org/2000/svg"><path d="M275.557 74.701C247.555 31.65 203.149 6.951 153.75 6.951c-49.38 0-93.786 24.699-121.807 67.751-27.89 42.828-34.311 97.07-17.257 144.983 4.565 13.083 11.821 25.794 21.507 37.708L143.99 391.837c2.431 3.043 5.994 4.788 9.761 4.788 3.767 0 7.33-1.744 9.76-4.769L271.27 257.448c9.742-11.988 16.979-24.699 21.507-37.67 17.091-48.006 10.652-102.229-17.22-145.077zm-147.191 84.31v19.334H98.48v-19.334h29.886zM98.48 144.066v-19.334h29.886v19.334H98.48zm29.886 49.223v19.334H98.48v-19.334h29.886zm0 34.279v19.334H98.48v-19.334h29.886zm79.658-68.557v19.334h-29.886v-19.334h29.886zm-29.885-14.945v-19.334h29.886v19.334h-29.886zm29.885 49.223v19.334h-29.886v-19.334h29.886zm0 34.279v19.334h-29.886v-19.334h29.886zm-39.338-83.502H138.8v-19.334h29.886v19.334zm0 14.945v19.334H138.8v-19.334h29.886zm0 42.848v45.043H138.8v-45.043h29.886zm49.988 55.219V80.876L83.25 114.564v138.44c-26.905-20.991-44.208-53.715-44.208-90.483 0-63.348 51.353-114.701 114.701-114.701s114.701 51.353 114.701 114.701c0 39.243-19.712 73.877-49.77 94.557z"/><path d="M153.743 47.821c-63.348 0-114.701 51.353-114.701 114.701 0 36.768 17.303 69.493 44.208 90.483v-138.44l135.424-33.689v176.203c30.058-20.68 49.77-55.314 49.77-94.557 0-63.348-51.353-114.701-114.701-114.701z"/><path d="M178.139 124.732h29.886v19.334h-29.886zm0 34.279h29.886v19.334h-29.886zm-39.338-34.279h29.886v19.334h-29.886zm0 34.279h29.886v19.334h-29.886zm39.338 34.278h29.886v19.334h-29.886zm0 34.279h29.886v19.334h-29.886zM98.48 124.732h29.886v19.334H98.48zm0 34.279h29.886v19.334H98.48zm0 34.278h29.886v19.334H98.48zm0 34.279h29.886v19.334H98.48zm40.321-25.709h29.886v45.043h-29.886z"/></symbol><symbol viewBox="0 0 512 512" id="purse" xmlns="http://www.w3.org/2000/svg"><path d="M502.7 352.8L477.4 269h15.2c3.8 0 7.4-1.8 9.6-4.8 2.3-3 2.9-7 1.8-10.6l-26-86.3c-5.4-17.8-21.6-29.8-40.2-29.8H293.7l29.2-20.7c3.2-2.2 5.1-5.9 5.1-9.8V85.3l2-.7c16.7-5.9 28-21.9 28-39.6 0-23.2-18.8-42-42-42s-42 18.8-42 42c0 17.7 11.3 33.7 28 39.6l2 .7v15.5l-48 34-48-34V85.3l2-.7c16.7-5.9 28-21.9 28-39.6 0-23.2-18.8-42-42-42s-42 18.8-42 42c0 17.7 11.3 33.7 28 39.6l2 .7V107c0 3.9 1.9 7.5 5.1 9.8l29.2 20.7h-144c-18.6 0-34.8 12-40.2 29.8L7.9 253.5c-1.1 3.6-.4 7.6 1.9 10.6s5.9 4.8 9.6 4.8h15.2L9.3 352.8C-2 389.8 4.9 429 27.9 460.1 51 491.2 86.5 509 125.2 509h261.6c38.7 0 74.2-17.8 97.3-48.9 23-31.1 29.9-70.3 18.6-107.3zM298 45c0-9.9 8.1-18 18-18s18 8.1 18 18-8.1 18-18 18-18-8.1-18-18zm-120 0c0-9.9 8.1-18 18-18s18 8.1 18 18-8.1 18-18 18-18-8.1-18-18zM57 174.3c2.3-7.6 9.2-12.8 17.2-12.8h363.5c8 0 14.9 5.1 17.2 12.8l21.4 70.7h-37.6L427 206c-1.5-5.1-6.2-8.5-11.5-8.5h-319c-5.3 0-9.9 3.4-11.5 8.5l-11.8 39H35.6L57 174.3zm407.8 271.5c-18.5 24.9-46.9 39.2-78 39.2H125.2c-31.1 0-59.5-14.3-78-39.2-18.5-24.9-24-56.3-15-86L59.7 269h22.4c5.3 0 9.9-3.4 11.5-8.5l11.8-39h301.2l11.8 39c1.5 5.1 6.2 8.5 11.5 8.5h22.4l27.4 90.7c9.1 29.8 3.6 61.1-14.9 86.1z"/></symbol><symbol viewBox="0 0 512 512" id="ring" xmlns="http://www.w3.org/2000/svg"><path d="M256 296c22.056 0 40-17.944 40-40s-17.944-40-40-40-40 17.944-40 40 17.944 40 40 40zm0-60c11.028 0 20 8.972 20 20s-8.972 20-20 20-20-8.972-20-20 8.972-20 20-20zM10 110c5.523 0 10-4.477 10-10 0-44.112 35.888-80 80-80 5.523 0 10-4.477 10-10s-4.477-10-10-10C44.86 0 0 44.86 0 100c0 5.523 4.477 10 10 10zm90-50c-22.056 0-40 17.944-40 40 0 5.523 4.477 10 10 10s10-4.477 10-10c0-11.028 8.972-20 20-20 5.523 0 10-4.477 10-10s-4.477-10-10-10zm302 442c0 5.523 4.477 10 10 10 55.14 0 100-44.86 100-100 0-5.523-4.477-10-10-10s-10 4.477-10 10c0 44.112-35.888 80-80 80-5.523 0-10 4.477-10 10zm30-90c0 11.028-8.972 20-20 20-5.523 0-10 4.477-10 10s4.477 10 10 10c22.056 0 40-17.944 40-40 0-5.523-4.477-10-10-10s-10 4.477-10 10z"/><path d="M156 487.648V502c0 5.523 4.477 10 10 10h45c5.523 0 10-4.477 10-10s-4.477-10-10-10h-35v-63.649C200.947 439.923 228.285 446 256 446s55.052-6.076 80-17.649V492h-35c-5.523 0-10 4.477-10 10s4.477 10 10 10h45c5.523 0 10-4.477 10-10v-84.422c54.67-33.917 90-94.12 90-161.578 0-104.766-85.234-190-190-190-90.532 0-167.229 63.629-185.775 150H11.87a9.999 9.999 0 00-9.921 8.748A250.626 250.626 0 000 256c0 21.129 2.66 42.157 7.908 62.501C27.694 395.109 82.802 457.861 156 487.648zM30.896 326h48.435c15.01 37.868 41.921 70.021 76.669 91.572v48.327C96.361 439.122 50.782 388.177 30.896 326zM256 86c93.738 0 170 76.262 170 170 0 92.462-74.917 170-170 170-93.889 0-170-76.103-170-170 0-93.894 75.389-170 170-170zM20.862 235.99h46.182A192.857 192.857 0 0066 256c0 17.019 2.245 33.779 6.664 50H25.476A230.682 230.682 0 0120 256c0-6.688.289-13.384.862-20.01z"/><circle cx="256" cy="502" r="10"/></symbol><symbol id="search" viewBox="0 0 21 21" xml:space="preserve" xmlns="http://www.w3.org/2000/svg"><style>.azst0{fill:#fff}</style><path class="azst0" d="M18.1 14.3c3.2-3.2 3.2-8.3 0-11.5C15-.3 9.8-.3 6.7 2.9 4 5.6 3.6 9.5 5.4 12.7c0 0 .1.2 0 .4l-4.1 4.1c-.8.8-1 2-.3 2.7l.1.1c.7.7 1.9.5 2.7-.3l4.1-4.1c.2-.2.4-.1.4-.1 3.2 1.9 7.1 1.5 9.8-1.2zm-10-1.4c-2.3-2.3-2.3-6.1 0-8.5 2.3-2.3 6.1-2.3 8.5 0 2.3 2.3 2.3 6.1 0 8.5-2.3 2.3-6.1 2.3-8.5 0zm0 0"/><path class="azst0" d="M8.7 8.1c-.1 0-.2 0-.3-.1-.5-.1-.7-.6-.5-1 1.1-2.7 4.2-4 6.9-2.8.4.2.6.7.4 1.1-.2.4-.7.6-1.1.4-1.8-.8-3.9.1-4.7 1.9-.1.3-.4.5-.7.5zm0 0"/></symbol><symbol viewBox="0 0 512 512" id="secure" xmlns="http://www.w3.org/2000/svg"><path d="M256.281 232.255c-9.426 0-17.067 7.641-17.067 17.067-.001 6.815 4.004 12.68 9.779 15.416v20.747a7.287 7.287 0 1014.574 0v-20.747c5.776-2.736 9.781-8.601 9.781-15.416 0-9.426-7.641-17.067-17.067-17.067z"/><path d="M438.138 111.149c-31.369-12.413-56.267-35.275-70.108-64.373-3.764-7.913-11.9-13.027-20.729-13.027H164.699c-8.828 0-16.964 5.113-20.728 13.027-13.84 29.098-38.739 51.96-70.108 64.373-8.799 3.481-14.484 11.869-14.484 21.368v44.412c0 58.219 16.977 115.73 49.096 166.318 32.431 51.083 79.425 93.774 135.898 123.456l.92.484a23.006 23.006 0 0021.413.001l.923-.485c56.474-29.683 103.467-72.373 135.899-123.456 32.118-50.589 49.095-108.1 49.095-166.318v-44.412c0-9.5-5.687-17.887-14.485-21.368zm-.088 65.781c0 55.447-16.192 110.257-46.825 158.507-31.069 48.936-76.153 89.867-130.374 118.367l-.923.484a8.435 8.435 0 01-7.855 0l-.92-.483c-54.223-28.5-99.307-69.431-130.377-118.368-30.633-48.249-46.825-103.06-46.825-158.508v-44.412c0-3.481 2.07-6.55 5.273-7.817 34.81-13.774 62.477-39.225 77.906-71.664 1.361-2.863 4.332-4.713 7.568-4.713h182.604c3.236 0 6.206 1.85 7.568 4.713 15.43 32.439 43.098 57.89 77.907 71.665 3.203 1.267 5.273 4.336 5.273 7.817v44.412z"/><path d="M474.672 246.08a7.284 7.284 0 00-8.713 5.501c-22.192 98.177-89.78 183.32-185.436 233.597l-22.229 11.684a4.928 4.928 0 01-4.584 0l-22.229-11.684c-95.806-50.356-163.428-135.646-185.527-234a7.286 7.286 0 00-14.218 3.194c23.036 102.531 93.369 191.358 192.965 243.705l22.229 11.684a19.501 19.501 0 0018.144-.001l22.229-11.684c99.439-52.265 169.737-140.938 192.871-243.283a7.288 7.288 0 00-5.502-8.713zm-3.547-162.703c-38.909-4.105-69.503-31.416-74.4-66.414C395.372 7.292 387.061 0 377.393 0H134.609c-9.667 0-17.978 7.292-19.331 16.963-4.898 34.999-35.492 62.309-74.4 66.414-9.859 1.04-17.294 9.369-17.294 19.373v78.244c0 11.37.589 22.865 1.751 34.167a7.288 7.288 0 0014.497-1.49 320.878 320.878 0 01-1.675-32.677V102.75c0-2.485 1.867-4.63 4.25-4.881 45.576-4.808 81.476-37.248 87.304-78.887.358-2.555 2.417-4.409 4.898-4.409h242.783c2.481 0 4.542 1.854 4.899 4.409 5.826 41.639 41.727 74.078 87.303 78.887 2.383.251 4.25 2.396 4.25 4.881v78.244c0 10.759-.552 21.639-1.64 32.34a7.287 7.287 0 0014.499 1.474 335.49 335.49 0 001.714-33.814V102.75c.001-10.004-7.433-18.333-17.292-19.373z"/><path d="M339.46 181.865h-11.981v-34.782c0-39.259-31.939-71.198-71.199-71.198-39.259 0-71.199 31.939-71.199 71.198v34.782h-11.98c-12.778 0-23.174 10.396-23.174 23.174v104.329c0 12.778 10.396 23.174 23.174 23.174H339.46c12.778 0 23.174-10.396 23.174-23.174V205.039c0-12.778-10.396-23.174-23.174-23.174zm-139.805-34.781c0-31.223 25.402-56.625 56.626-56.625s56.626 25.402 56.626 56.625v34.782H199.655v-34.782zm148.406 162.284c0 4.742-3.859 8.601-8.601 8.601H173.101c-4.743 0-8.601-3.859-8.601-8.601V205.039c0-4.742 3.859-8.601 8.601-8.601H339.46c4.742 0 8.601 3.858 8.601 8.601v104.329z"/></symbol><symbol viewBox="-49 141 512 512" id="secure-shield" xmlns="http://www.w3.org/2000/svg"><path d="M405.888 238.576c-66.592-18.246-133.576-46.658-193.711-82.162a10.176 10.176 0 00-10.351 0C139.958 192.939 76.593 219.812 8.11 238.576a10.179 10.179 0 00-7.49 9.82v104.028C.62 459.55 50.04 530.459 91.5 571.08c44.634 43.735 96.626 67.921 115.503 67.921 18.875 0 70.867-24.186 115.501-67.921 41.458-40.62 90.876-111.53 90.876-218.656V248.395a10.18 10.18 0 00-7.492-9.819zm-12.871 113.847c0 100.054-46.095 166.222-84.765 204.112-43.892 43.007-90.82 62.102-101.25 62.102s-57.361-19.096-101.254-62.102c-38.67-37.891-84.766-104.057-84.766-204.112v-96.298c65.49-18.595 126.479-44.544 186.022-79.145 58.055 33.683 122.088 60.923 186.013 79.141v96.302z"/><path d="M116.758 254.985c-2.061-5.232-7.972-7.803-13.205-5.741a828.3 828.3 0 01-55.485 19.607 10.183 10.183 0 00-7.134 9.714v39.316c0 5.623 4.559 10.181 10.181 10.181s10.181-4.558 10.181-10.181v-31.876a849.347 849.347 0 0049.721-17.817c5.233-2.06 7.802-7.971 5.741-13.203zm19.341 1.931c1.366 0 2.753-.275 4.083-.855l.187-.081c5.151-2.257 7.471-8.254 5.214-13.402-2.259-5.151-8.289-7.481-13.435-5.226l-.165.071c-5.154 2.251-7.481 8.243-5.23 13.394 1.669 3.824 5.418 6.099 9.346 6.099zm192.205 226.375c-4.705-3.075-11.014-1.752-14.093 2.955-8.389 12.841-18.232 25.138-29.258 36.545a260.067 260.067 0 01-29.203 25.982c-4.47 3.409-5.331 9.797-1.923 14.27a10.17 10.17 0 008.103 4.009c2.153 0 4.323-.68 6.167-2.086a280.7 280.7 0 0031.495-28.021c11.921-12.33 22.575-25.641 31.667-39.561 3.076-4.709 1.751-11.018-2.955-14.093zm-96.199 81.449l-.584.344c-4.866 2.818-6.528 9.046-3.711 13.911a10.175 10.175 0 0013.912 3.71l.674-.396c4.852-2.842 6.482-9.077 3.641-13.93-2.845-4.852-9.083-6.479-13.932-3.639zm-94.502-188.519c-6.251-6.252-14.565-9.693-23.408-9.693s-17.157 3.442-23.411 9.693c-12.907 12.91-12.907 33.914 0 46.823l60.118 60.116c6.252 6.25 14.566 9.692 23.409 9.692 8.843 0 17.157-3.442 23.41-9.694l125.502-125.502c12.905-12.912 12.905-33.914-.002-46.819-6.252-6.252-14.566-9.693-23.41-9.693-8.843 0-17.157 3.442-23.41 9.693L174.31 412.927l-36.707-36.706zm153.196-50.985a12.662 12.662 0 019.012-3.73c3.407 0 6.605 1.325 9.013 3.73 4.967 4.967 4.967 13.054-.002 18.024l-125.499 125.5a12.662 12.662 0 01-9.012 3.73 12.669 12.669 0 01-9.013-3.73l-60.116-60.114c-4.969-4.969-4.969-13.056-.002-18.024 2.407-2.406 5.609-3.732 9.014-3.732s6.605 1.325 9.011 3.73l43.905 43.906a10.183 10.183 0 0014.397 0l109.292-109.29z"/></symbol><symbol viewBox="0 0 512 512" id="video" xmlns="http://www.w3.org/2000/svg"><path d="M484.098 168.413h-28.693v-96.97c0-22.228-18.084-40.311-40.312-40.311H67.756c-22.228 0-40.311 18.083-40.311 40.311v246.11c0 9.259 3.264 17.963 8.747 24.897H12.979C5.822 342.449 0 348.296 0 355.481v19.028c0 18.29 14.769 33.169 32.922 33.169h186.003c4.143 0 7.5-3.358 7.5-7.5s-3.357-7.5-7.5-7.5H32.922c-9.882 0-17.922-8.15-17.922-18.169v-17.06h315.961v35.229h-77.036c-4.143 0-7.5 3.358-7.5 7.5s3.357 7.5 7.5 7.5h77.036v45.288c0 15.387 12.518 27.905 27.904 27.905h125.232c15.387 0 27.904-12.518 27.904-27.905V196.318c.001-15.387-12.517-27.905-27.903-27.905zM330.961 342.449H63.22c-11.882-2.179-20.774-12.784-20.774-24.897V71.443c0-13.957 11.354-25.311 25.311-25.311h347.337c13.957 0 25.312 11.354 25.312 25.311v96.971h-14.477v-94.64c0-7.381-6.005-13.387-13.386-13.387H70.309c-7.382 0-13.387 6.005-13.387 13.387v241.08c0 7.381 6.005 13.387 13.387 13.387h260.653v14.208h-.001zm79.967-267.063v19.913h-300.74V75.386h300.74zm-315.74 0v19.913H71.921V75.386h23.267zm235.773 120.931V313.24H71.921V110.299h339.007v58.114h-52.062c-15.387 0-27.905 12.518-27.905 27.904zm15 29.445h15.081v15.018h-15.081v-15.018zm151.041 227.204c0 7.116-5.789 12.905-12.904 12.905H358.865c-7.115 0-12.904-5.789-12.904-12.905v-21.495h151.041v21.495zm0-36.495H345.961V255.78h151.041v160.691zm0-175.691h-120.96v-15.018h120.96v15.018zm0-30.018H345.961v-14.445c0-7.115 5.789-12.904 12.904-12.904h125.232c7.115 0 12.904 5.789 12.904 12.904v14.445h.001z"/><path d="M413.51 454.593h15.943c4.143 0 7.5-3.358 7.5-7.5s-3.357-7.5-7.5-7.5H413.51c-4.143 0-7.5 3.358-7.5 7.5s3.357 7.5 7.5 7.5zM266.171 199.078l-32.184-21.945c-10.185-6.946-24.017.362-24.017 12.691v43.891c0 12.326 13.827 19.638 24.017 12.691l32.184-21.945c8.936-6.093 8.934-19.292 0-25.383zm-8.451 12.99l-32.184 21.946c-.097.065-.18.123-.373.021-.192-.102-.192-.203-.192-.32v-43.891c0-.117 0-.218.192-.32a.403.403 0 01.185-.056c.076 0 .13.037.188.077l32.184 21.945c.067.046.158.108.158.299 0 .192-.091.254-.158.299z"/><path d="M236.425 141.552c-38.718 0-70.218 31.5-70.218 70.217s31.5 70.217 70.218 70.217 70.217-31.499 70.217-70.217-31.499-70.217-70.217-70.217zm0 125.435c-30.447 0-55.218-24.77-55.218-55.217s24.771-55.217 55.218-55.217c30.446 0 55.217 24.771 55.217 55.217s-24.771 55.217-55.217 55.217zm183.482 37.189c-9.527-6.496-22.422.367-22.422 11.85v38.2c0 11.577 12.974 18.292 22.423 11.849l28.01-19.1c8.344-5.688 8.342-18.011.001-23.699l-28.012-19.1zm-7.422 48.805V317.27l26.186 17.856-26.186 17.855z"/><path d="M421.481 397.211c26.099 0 49.576-16.494 58.42-41.043a7.499 7.499 0 00-4.514-9.598 7.502 7.502 0 00-9.598 4.514c-6.708 18.618-24.515 31.127-44.309 31.127-25.963 0-47.085-21.123-47.085-47.085s21.122-47.085 47.085-47.085c20.626 0 38.666 13.202 44.892 32.851a7.5 7.5 0 1014.299-4.53c-8.208-25.911-31.995-43.32-59.19-43.32-34.233 0-62.085 27.852-62.085 62.085s27.852 62.084 62.085 62.084z"/></symbol><symbol viewBox="-16 0 512 512" id="zamok" xmlns="http://www.w3.org/2000/svg"><path d="M260 356c0 5.523-4.477 10-10 10s-10-4.477-10-10 4.477-10 10-10 10 4.477 10 10zm0 0"/><path d="M30 512h240c16.543 0 30-13.457 30-30V196h150c16.543 0 30-13.457 30-30v-20c0-16.543-13.457-30-30-30H300V30c0-16.543-13.457-30-30-30H30C13.457 0 0 13.457 0 30v452c0 16.543 13.457 30 30 30zm120-316.012h57.488C194.605 214.59 173.368 226 150 226c-38.598 0-70-31.402-70-70s31.402-70 70-70c23.367 0 44.605 11.402 57.488 30H150c-16.543 0-30 13.457-30 30v20c0 16.543 13.457 29.988 30 29.988zM150 176c-5.516 0-10-4.484-10-10v-20c0-5.516 4.484-10 10-10h210v40H150zm230-40h20v40h-20zm80 10v20c0 5.516-4.484 10-10 10h-30v-40h30c5.516 0 10 4.484 10 10zM20 30c0-5.516 4.484-10 10-10h240c5.516 0 10 4.484 10 10v86h-49.355C215.527 85.41 184.57 66 150 66c-49.625 0-90 40.375-90 90s40.375 90 90 90c34.57 0 65.527-19.41 80.645-50H280v286c0 5.516-4.484 10-10 10H30c-5.516 0-10-4.484-10-10zm0 0"/><path d="M90 446h120c5.523 0 10-4.477 10-10v-60c0-5.523-4.477-10-10-10h-10v-30c0-27.621-22.375-50-50-50-27.57 0-50 22.43-50 50v30H90c-5.523 0-10 4.477-10 10v60c0 5.523 4.477 10 10 10zm30-110c0-16.543 13.457-30 30-30 16.57 0 30 13.43 30 30v30h-60zm-20 50h40v10c0 5.523 4.477 10 10 10s10-4.477 10-10v-10h40v40H100zm150-60c5.523 0 10-4.477 10-10v-80c0-5.523-4.477-10-10-10s-10 4.477-10 10v80c0 5.523 4.477 10 10 10zm0 0"/></symbol></svg>