<svg version="1.1" id="Слой_1" xmlns="http://www.w3.org/2000/svg" x="0" y="0" viewBox="0 0 1792 1792" xml:space="preserve"><path d="M896.016 819.006c-57.438 0-104 46.562-104 104s46.562 104 104 104 104-46.562 104-104c-.066-57.41-46.59-103.934-104-104zm0 192c-48.601 0-88-39.399-88-88s39.399-88 88-88 88 39.399 88 88c-.057 48.577-39.423 87.943-88 88z" fill="#efbd36"/><path d="M1128.016 803.006a8 8 0 008-8v-32c0-.104-.056-.184-.056-.288a7.881 7.881 0 00-.52-2.552c0-.096 0-.208-.072-.304a8.002 8.002 0 00-1.6-2.352 9.023 9.023 0 00-.744-.592 8.043 8.043 0 00-1.16-.912l-232-128a7.951 7.951 0 00-7.728 0l-232 128a8.043 8.043 0 00-1.16.912 9.023 9.023 0 00-.744.592 8.002 8.002 0 00-1.6 2.352c0 .096 0 .208-.072.304a7.881 7.881 0 00-.52 2.552c0 .104-.056.184-.056.288v32a8 8 0 008 8h24.032v240h-24a8 8 0 00-8 8v48a8 8 0 008 8h464a8 8 0 008-8v-48a8 8 0 00-8-8h-24v-240h24zm-232-158.864l200.936 110.864H695.08l200.936-110.864zm224 414.864v32h-448v-32h448zm-416-16v-240h32v240h-32zm48 0v-240h288v240h-288zm304 0v-240h32v240h-32zm-384-256v-16h448v16h-448z" fill="#efbd36"/><path d="M860.845 927.873h10.883v-54.575c3.882-.915 8.047-1.526 12.492-1.832 4.445-.306 8.864-.46 13.259-.46 4.699 0 9.324.46 13.872 1.38 4.546.92 8.584 2.606 12.109 5.058 3.526 2.452 6.361 5.774 8.507 9.963 2.146 4.191 3.219 9.556 3.219 16.094 0 6.438-1.099 11.803-3.296 16.095-2.198 4.292-5.111 7.767-8.737 10.423-3.628 2.658-7.767 4.548-12.415 5.671a65.911 65.911 0 01-14.179 1.839l-12.109.153v10.883h25.444v9.503H884.45v21.459h-12.722v-21.459h-10.883v-9.503h10.883V937.53h-10.883v-9.657zm36.941-46.138c-2.659 0-5.187.077-7.587.23-2.402.153-4.318.381-5.748.687v44.301H896.1c3.066 0 6.131-.304 9.197-.915 3.066-.611 5.825-1.782 8.277-3.513 2.453-1.732 4.446-4.1 5.978-7.104s2.246-6.95 2.146-11.841c.1-4.175-.486-7.662-1.763-10.464-1.279-2.8-3.015-5.039-5.211-6.72-2.198-1.681-4.752-2.876-7.664-3.59-2.913-.714-6.005-1.071-9.274-1.071z" fill="#efbd36"/></svg>