<svg version="1.1" id="Слой_1" xmlns="http://www.w3.org/2000/svg" x="0" y="0" viewBox="0 0 1792 1792" xml:space="preserve"><path d="M1106.677 770.815v261.621a7.5 7.5 0 01-7.5 7.5h-7.529v42.903a7.505 7.505 0 01-2.465 5.56 7.505 7.505 0 01-5.776 1.903l-21.816-2.166v47.2a7.5 7.5 0 01-9.08 7.332L575.01 1039.786l-.038-.008-.045-.01c-.113-.024-.221-.058-.332-.087-.085-.022-.172-.041-.256-.066-.103-.031-.203-.069-.305-.104l-.112-.04c-.075-.027-.151-.05-.225-.08l-.053-.022c-.091-.038-.18-.082-.269-.123-.094-.043-.189-.082-.281-.129-.023-.012-.045-.026-.068-.039l-.01-.005c-.085-.045-.167-.093-.25-.141-.083-.048-.167-.092-.247-.143-.038-.024-.074-.051-.112-.076-.073-.047-.144-.098-.215-.147-.071-.05-.144-.099-.213-.152-.048-.036-.094-.075-.141-.113a6.869 6.869 0 01-.186-.153c-.059-.051-.119-.101-.177-.153-.056-.05-.109-.104-.163-.156s-.108-.102-.16-.155l-.139-.147c-.061-.066-.12-.135-.179-.204-.046-.053-.094-.103-.138-.157-.036-.044-.069-.09-.104-.135a7.915 7.915 0 01-.174-.235c-.039-.055-.082-.106-.12-.162-.03-.045-.056-.092-.086-.138a7.134 7.134 0 01-.156-.253c-.036-.061-.075-.121-.109-.184l-.09-.171a8.164 8.164 0 01-.298-.64 6.225 6.225 0 01-.161-.44c-.026-.076-.052-.151-.075-.229l-.043-.15c-.028-.099-.05-.2-.073-.301-.019-.081-.041-.161-.057-.243l-.02-.106c-.023-.127-.039-.257-.055-.387-.01-.076-.024-.15-.032-.227l-.005-.055a7.718 7.718 0 01-.032-.684V770.815a7.5 7.5 0 017.5-7.5h522.671a7.5 7.5 0 017.5 7.5zm-85.328 254.121c3.552-37.141 33.187-66.776 70.328-70.328V848.642c-37.141-3.552-66.776-33.187-70.328-70.328H654.334c-3.552 37.142-33.187 66.777-70.328 70.328v105.966c37.141 3.552 66.776 33.187 70.328 70.328h367.015zm-382.108 0c-3.43-28.86-26.375-51.805-55.235-55.235v55.235h55.235zm0-246.621h-55.235v55.235c28.86-3.431 51.805-26.375 55.235-55.235zm452.436 0h-55.235c3.43 28.86 26.375 51.805 55.235 55.235v-55.235zm-45.087 308.332l-339.171-33.677 339.172 73.078-.001-39.401zm30.058-46.711H727.949l348.699 34.622v-34.622zm15.029-15v-55.235c-28.86 3.43-51.805 26.375-55.235 55.235h47.687l.019-.001.019.001h7.51zM916.205 842.744a7.5 7.5 0 00-1.822 10.449c10.001 14.227 15.288 30.974 15.288 48.432 0 46.491-37.824 84.315-84.315 84.315-46.492 0-84.316-37.824-84.316-84.315s37.824-84.315 84.316-84.315c17.459 0 34.208 5.287 48.435 15.29a7.496 7.496 0 0010.449-1.821 7.5 7.5 0 00-1.821-10.449c-16.767-11.788-36.499-18.02-57.063-18.02-54.763 0-99.316 44.553-99.316 99.315s44.553 99.315 99.316 99.315 99.315-44.553 99.315-99.315c0-20.563-6.23-40.293-18.018-57.059-2.38-3.388-7.059-4.202-10.448-1.822z" fill="#efbd36"/><path d="M811.182 905.569h10.883v-54.575c3.882-.915 8.047-1.526 12.492-1.832 4.445-.306 8.864-.46 13.259-.46 4.699 0 9.324.46 13.872 1.38 4.546.92 8.584 2.606 12.109 5.058 3.526 2.452 6.361 5.774 8.507 9.963 2.146 4.191 3.219 9.556 3.219 16.094 0 6.438-1.099 11.803-3.296 16.095-2.198 4.292-5.111 7.767-8.737 10.423-3.628 2.658-7.767 4.548-12.415 5.671a65.911 65.911 0 01-14.179 1.839l-12.109.153v10.883h25.444v9.503h-25.444v21.459h-12.722v-21.459h-10.883v-9.503h10.883v-11.036h-10.883v-9.656zm36.941-46.137c-2.658 0-5.187.077-7.587.23-2.402.153-4.318.381-5.748.687v44.3h11.649c3.066 0 6.131-.304 9.197-.915 3.066-.611 5.825-1.782 8.277-3.513 2.453-1.732 4.446-4.1 5.978-7.104 1.533-3.003 2.246-6.95 2.146-11.841.1-4.175-.486-7.662-1.763-10.464-1.279-2.8-3.015-5.039-5.212-6.72-2.198-1.681-4.752-2.876-7.664-3.59-2.912-.713-6.004-1.07-9.273-1.07z" fill="#efbd36"/></svg>