<svg version="1.1" id="Слой_1" xmlns="http://www.w3.org/2000/svg" x="0" y="0" viewBox="0 0 307.487 403.575" xml:space="preserve"><path d="M275.557 74.701C247.555 31.65 203.149 6.951 153.75 6.951c-49.38 0-93.786 24.699-121.807 67.751-27.89 42.828-34.311 97.07-17.257 144.983 4.565 13.083 11.821 25.794 21.507 37.708L143.99 391.837c2.431 3.043 5.994 4.788 9.761 4.788 3.767 0 7.33-1.744 9.76-4.769L271.27 257.448c9.742-11.988 16.979-24.699 21.507-37.67 17.091-48.006 10.652-102.229-17.22-145.077zm-147.191 84.31v19.334H98.48v-19.334h29.886zM98.48 144.066v-19.334h29.886v19.334H98.48zm29.886 49.223v19.334H98.48v-19.334h29.886zm0 34.279v19.334H98.48v-19.334h29.886zm79.658-68.557v19.334h-29.886v-19.334h29.886zm-29.885-14.945v-19.334h29.886v19.334h-29.886zm29.885 49.223v19.334h-29.886v-19.334h29.886zm0 34.279v19.334h-29.886v-19.334h29.886zm-39.338-83.502H138.8v-19.334h29.886v19.334zm0 14.945v19.334H138.8v-19.334h29.886zm0 42.848v45.043H138.8v-45.043h29.886zm49.988 55.219V80.876L83.25 114.564v138.44c-26.905-20.991-44.208-53.715-44.208-90.483 0-63.348 51.353-114.701 114.701-114.701s114.701 51.353 114.701 114.701c0 39.243-19.712 73.877-49.77 94.557z" fill="#0c2e59"/><path d="M153.743 47.821c-63.348 0-114.701 51.353-114.701 114.701 0 36.768 17.303 69.493 44.208 90.483v-138.44l135.424-33.689v176.203c30.058-20.68 49.77-55.314 49.77-94.557 0-63.348-51.353-114.701-114.701-114.701z" fill="#fff"/><path fill="#fff" d="M178.139 124.732h29.886v19.334h-29.886zm0 34.279h29.886v19.334h-29.886zm-39.338-34.279h29.886v19.334h-29.886zm0 34.279h29.886v19.334h-29.886zm39.338 34.278h29.886v19.334h-29.886zm0 34.279h29.886v19.334h-29.886zM98.48 124.732h29.886v19.334H98.48zm0 34.279h29.886v19.334H98.48zm0 34.278h29.886v19.334H98.48zm0 34.279h29.886v19.334H98.48zm40.321-25.709h29.886v45.043h-29.886z"/></svg>